<svg viewBox="0 0 1800 2700" xmlns="http://www.w3.org/2000/svg">
  <!-- PDF Book Cover - COMPLETELY REBUILT -->
  <defs>
    <linearGradient id="bgGrad" x1="0%" y1="0%" x2="100%" y2="100%">
      <stop offset="0%" style="stop-color:#1A252F;stop-opacity:1" />
      <stop offset="25%" style="stop-color:#2C3E50;stop-opacity:1" />
      <stop offset="50%" style="stop-color:#3498DB;stop-opacity:1" />
      <stop offset="75%" style="stop-color:#2C3E50;stop-opacity:1" />
      <stop offset="100%" style="stop-color:#1A252F;stop-opacity:1" />
    </linearGradient>
    
    <radialGradient id="centerGlow" cx="50%" cy="45%" r="40%">
      <stop offset="0%" style="stop-color:#ffffff;stop-opacity:0.2" />
      <stop offset="50%" style="stop-color:#3498DB;stop-opacity:0.1" />
      <stop offset="100%" style="stop-color:#1A252F;stop-opacity:0" />
    </radialGradient>
    
    <linearGradient id="goldGrad" x1="0%" y1="0%" x2="100%" y2="0%">
      <stop offset="0%" style="stop-color:#F1C40F;stop-opacity:1" />
      <stop offset="50%" style="stop-color:#F39C12;stop-opacity:1" />
      <stop offset="100%" style="stop-color:#F1C40F;stop-opacity:1" />
    </linearGradient>
    
    <filter id="glow">
      <feGaussianBlur stdDeviation="3" result="coloredBlur"/>
      <feMerge>
        <feMergeNode in="coloredBlur"/>
        <feMergeNode in="SourceGraphic"/>
      </feMerge>
    </filter>
  </defs>
  
  <!-- Background -->
  <rect width="1800" height="2700" fill="url(#bgGrad)"/>
  <ellipse cx="900" cy="1200" rx="600" ry="800" fill="url(#centerGlow)"/>
  
  <!-- 7-page stacks -->
  <g fill="url(#goldGrad)" opacity="0.6">
    <rect x="100" y="100" width="100" height="3" rx="1"/>
    <rect x="105" y="110" width="100" height="3" rx="1"/>
    <rect x="110" y="120" width="100" height="3" rx="1"/>
    <rect x="115" y="130" width="100" height="3" rx="1"/>
    <rect x="120" y="140" width="100" height="3" rx="1"/>
    <rect x="125" y="150" width="100" height="3" rx="1"/>
    <rect x="130" y="160" width="100" height="3" rx="1"/>
    
    <rect x="1600" y="100" width="100" height="3" rx="1"/>
    <rect x="1595" y="110" width="100" height="3" rx="1"/>
    <rect x="1590" y="120" width="100" height="3" rx="1"/>
    <rect x="1585" y="130" width="100" height="3" rx="1"/>
    <rect x="1580" y="140" width="100" height="3" rx="1"/>
    <rect x="1575" y="150" width="100" height="3" rx="1"/>
    <rect x="1570" y="160" width="100" height="3" rx="1"/>
  </g>
  
  <!-- Central Mirror -->
  <g transform="translate(900,1100)">
    <ellipse cx="0" cy="0" rx="360" ry="480" fill="none" stroke="url(#goldGrad)" stroke-width="8" opacity="0.8"/>
    <ellipse cx="0" cy="0" rx="340" ry="460" fill="none" stroke="#ffffff" stroke-width="2" opacity="0.3"/>
    <ellipse cx="0" cy="0" rx="320" ry="440" fill="url(#centerGlow)" opacity="0.6"/>
    <ellipse cx="0" cy="0" rx="300" ry="420" fill="#ffffff" opacity="0.08"/>
    <ellipse cx="-50" cy="-80" rx="150" ry="200" fill="#ffffff" opacity="0.15"/>
  </g>
  
  <!-- Day markers -->
  <g filter="url(#glow)">
    <circle cx="500" cy="700" r="25" fill="url(#goldGrad)" opacity="0.9"/>
    <circle cx="500" cy="700" r="15" fill="#2C3E50"/>
    <text x="500" y="708" text-anchor="middle" fill="#ffffff" font-family="Arial, sans-serif" font-size="20" font-weight="bold">1</text>
    
    <circle cx="700" cy="700" r="25" fill="url(#goldGrad)" opacity="0.9"/>
    <circle cx="700" cy="700" r="15" fill="#2C3E50"/>
    <text x="700" y="708" text-anchor="middle" fill="#ffffff" font-family="Arial, sans-serif" font-size="20" font-weight="bold">2</text>
    
    <circle cx="900" cy="700" r="25" fill="url(#goldGrad)" opacity="0.9"/>
    <circle cx="900" cy="700" r="15" fill="#2C3E50"/>
    <text x="900" y="708" text-anchor="middle" fill="#ffffff" font-family="Arial, sans-serif" font-size="20" font-weight="bold">3</text>
    
    <circle cx="1100" cy="700" r="25" fill="url(#goldGrad)" opacity="0.9"/>
    <circle cx="1100" cy="700" r="15" fill="#2C3E50"/>
    <text x="1100" y="708" text-anchor="middle" fill="#ffffff" font-family="Arial, sans-serif" font-size="20" font-weight="bold">4</text>
    
    <circle cx="1300" cy="700" r="25" fill="url(#goldGrad)" opacity="0.9"/>
    <circle cx="1300" cy="700" r="15" fill="#2C3E50"/>
    <text x="1300" y="708" text-anchor="middle" fill="#ffffff" font-family="Arial, sans-serif" font-size="20" font-weight="bold">5</text>
    
    <circle cx="1300" cy="1100" r="25" fill="url(#goldGrad)" opacity="0.9"/>
    <circle cx="1300" cy="1100" r="15" fill="#2C3E50"/>
    <text x="1300" y="1108" text-anchor="middle" fill="#ffffff" font-family="Arial, sans-serif" font-size="20" font-weight="bold">6</text>
    
    <circle cx="500" cy="1100" r="25" fill="url(#goldGrad)" opacity="0.9"/>
    <circle cx="500" cy="1100" r="15" fill="#2C3E50"/>
    <text x="500" y="1108" text-anchor="middle" fill="#ffffff" font-family="Arial, sans-serif" font-size="20" font-weight="bold">7</text>
  </g>
  
  <!-- Connection lines -->
  <g stroke="#27AE60" stroke-width="3" fill="none" opacity="0.7">
    <path d="M 500,700 Q 600,600 700,700"/>
    <path d="M 700,700 Q 800,600 900,700"/>
    <path d="M 900,700 Q 1000,600 1100,700"/>
    <path d="M 1100,700 Q 1200,600 1300,700"/>
    <path d="M 1300,700 Q 1300,900 1300,1100"/>
    <path d="M 1300,1100 Q 1200,1200 1100,1100"/>
    <path d="M 1100,1100 Q 1000,1200 900,1100"/>
    <path d="M 900,1100 Q 800,1200 700,1100"/>
    <path d="M 700,1100 Q 600,1200 500,1100"/>
    <path d="M 500,1100 Q 500,900 500,700"/>
  </g>
  
  <!-- Title -->
  <text x="900" y="280" text-anchor="middle" fill="url(#goldGrad)" font-family="Arial, sans-serif" font-size="140" font-weight="bold" filter="url(#glow)">7 DAYS</text>
  <text x="900" y="410" text-anchor="middle" fill="#ECF0F1" font-family="Arial, sans-serif" font-size="80" font-weight="300">TO</text>
  <text x="900" y="550" text-anchor="middle" fill="url(#goldGrad)" font-family="Arial, sans-serif" font-size="110" font-weight="bold" filter="url(#glow)">SELF-DISCOVERY</text>
  
  <!-- Digital Badge -->
  <g transform="translate(1400,400)">
    <circle cx="0" cy="0" r="80" fill="url(#goldGrad)" opacity="0.9"/>
    <circle cx="0" cy="0" r="70" fill="#2C3E50"/>
    <text x="0" y="-10" text-anchor="middle" fill="url(#goldGrad)" font-family="Arial, sans-serif" font-size="24" font-weight="bold">DIGITAL</text>
    <text x="0" y="15" text-anchor="middle" fill="url(#goldGrad)" font-family="Arial, sans-serif" font-size="24" font-weight="bold">EDITION</text>
  </g>
  
  <!-- Subtitles -->
  <text x="900" y="1800" text-anchor="middle" fill="#ECF0F1" font-family="Arial, sans-serif" font-size="52" font-weight="300">UNMASK YOUR TRUE IDENTITY</text>
  <text x="900" y="1880" text-anchor="middle" fill="#ECF0F1" font-family="Arial, sans-serif" font-size="52" font-weight="300">BUILD AUTHENTIC RELATIONSHIPS</text>
  <text x="900" y="1960" text-anchor="middle" fill="#ECF0F1" font-family="Arial, sans-serif" font-size="52" font-weight="300">CREATE MEANINGFUL IMPACT</text>
  
  <!-- Features -->
  <text x="900" y="2060" text-anchor="middle" fill="url(#goldGrad)" font-family="Arial, sans-serif" font-size="38" font-weight="500" filter="url(#glow)">• Instant Download • Searchable Text • Interactive Links •</text>
  
  <!-- AUTHOR NAME - CLEARLY VISIBLE HERE -->
  <text x="900" y="2180" text-anchor="middle" fill="#ffffff" font-family="Arial, sans-serif" font-size="48" font-weight="bold">BY</text>
  <text x="900" y="2280" text-anchor="middle" fill="url(#goldGrad)" font-family="Arial, sans-serif" font-size="84" font-weight="bold" filter="url(#glow)">ABDOU ASWANY</text>
  
  <!-- Bottom accents -->
  <rect x="150" y="2450" width="1500" height="6" fill="url(#goldGrad)" opacity="0.8"/>
  <rect x="300" y="2470" width="1200" height="3" fill="#27AE60" opacity="0.6"/>
  
</svg>